<?xml version="1.0" encoding="UTF-8"?><svg id="Layer_1" xmlns="http://www.w3.org/2000/svg" viewBox="0 0 664 186"><defs><style>.cls-1{fill:#fff;}</style></defs><rect width="664" height="186"/><path class="cls-1" d="m9.49,168.55c-2-6.13-3.7-12.4-5.1-18.8-1.4-6.4-2.5-12.83-3.3-19.3-.8-6.47-1.2-12.57-1.2-18.3,0-11.33,1.3-22,3.9-32s6.2-19.57,10.8-28.7c4.6-9.13,10.07-17.93,16.4-26.4C37.32,16.59,44.16,8.22,51.49-.05h14c-7.2,8.67-13.8,17.6-19.8,26.8-6,9.2-11.13,18.73-15.4,28.6-4.27,9.87-7.57,20.1-9.9,30.7-2.33,10.6-3.5,21.7-3.5,33.3s.8,22.5,2.4,33.5,4.27,21.9,8,32.7h-11.2c-2.4-5.2-4.6-10.87-6.6-17Z"/><path class="cls-1" d="m60.59,59.05c2.73-4.2,6.1-7.7,10.1-10.5,4-2.8,8.53-4.87,13.6-6.2,5.07-1.33,10.33-2,15.8-2,5.07,0,9.87.4,14.4,1.2,4.53.8,8.53,2.2,12,4.2,3.47,2,6.23,4.7,8.3,8.1,2.07,3.4,3.1,7.7,3.1,12.9,0,2.93-.37,6.1-1.1,9.5-.73,3.4-1.43,6.5-2.1,9.3l-6.6,28.2c-.4,2.13-.97,4.54-1.7,7.2-.73,2.67-1.1,5.2-1.1,7.6s.47,4.07,1.4,5c.93.93,2.13,1.4,3.6,1.4.8,0,1.7-.17,2.7-.5,1-.33,1.9-.63,2.7-.9l-2.6,12.6c-1.33.53-3.03,1.03-5.1,1.5-2.07.47-3.83.7-5.3.7-4.67,0-8.2-1.27-10.6-3.8s-3.33-6.07-2.8-10.6l-.4-.4c-3.6,4.8-8.07,8.47-13.4,11-5.33,2.53-12.4,3.8-21.2,3.8-4.4,0-8.5-.5-12.3-1.5-3.8-1-7.1-2.67-9.9-5-2.8-2.33-5.03-5.33-6.7-9-1.67-3.67-2.5-8.17-2.5-13.5,0-7.6,1.63-13.53,4.9-17.8,3.27-4.27,7.43-7.5,12.5-9.7,5.07-2.2,10.67-3.7,16.8-4.5,6.13-.8,12.07-1.47,17.8-2,4.53-.4,8.43-.83,11.7-1.3,3.27-.47,5.97-1.23,8.1-2.3,2.13-1.07,3.7-2.6,4.7-4.6s1.5-4.73,1.5-8.2c0-2.8-.67-5.07-2-6.8-1.33-1.73-3-3.1-5-4.1s-4.23-1.7-6.7-2.1c-2.47-.4-4.83-.6-7.1-.6-3.2,0-6.37.33-9.5,1-3.13.67-5.97,1.77-8.5,3.3-2.53,1.53-4.67,3.47-6.4,5.8-1.73,2.33-2.87,5.17-3.4,8.5h-17c.8-5.73,2.57-10.7,5.3-14.9Zm4.8,70.9c3.8,2.4,8.1,3.6,12.9,3.6,13.47,0,23.13-4.53,29-13.6,2.8-3.87,4.7-8.07,5.7-12.6,1-4.53,2.1-9.2,3.3-14h-.4c-2.4,1.73-5.43,2.97-9.1,3.7-3.67.73-7.57,1.3-11.7,1.7-4.13.4-8.3.9-12.5,1.5-4.2.6-7.97,1.57-11.3,2.9-3.33,1.33-6.07,3.23-8.2,5.7-2.13,2.47-3.27,5.9-3.4,10.3,0,4.8,1.9,8.4,5.7,10.8Z"/><path class="cls-1" d="m179.29-.65v146.8h-17V-.65h17Z"/><path class="cls-1" d="m223.68-.65v146.8h-17V-.65h17Z"/><path class="cls-1" d="m323.28,139.55c-7.73,5.87-17.47,8.8-29.2,8.8-8.27,0-15.43-1.33-21.5-4-6.07-2.67-11.17-6.4-15.3-11.2-4.13-4.8-7.23-10.53-9.3-17.2-2.07-6.67-3.23-13.93-3.5-21.8,0-7.87,1.2-15.07,3.6-21.6,2.4-6.53,5.77-12.2,10.1-17,4.33-4.8,9.47-8.53,15.4-11.2,5.93-2.67,12.43-4,19.5-4,9.2,0,16.83,1.9,22.9,5.7,6.07,3.8,10.93,8.63,14.6,14.5,3.67,5.87,6.2,12.27,7.6,19.2,1.4,6.93,1.96,13.54,1.7,19.8h-77.4c-.13,4.53.4,8.83,1.6,12.9,1.2,4.07,3.13,7.67,5.8,10.8,2.67,3.13,6.07,5.63,10.2,7.5,4.13,1.87,9,2.8,14.6,2.8,7.2,0,13.1-1.67,17.7-5,4.6-3.33,7.63-8.4,9.1-15.2h16.8c-2.27,11.6-7.27,20.33-15,26.2Zm-4.1-66.4c-1.54-3.6-3.6-6.7-6.2-9.3s-5.67-4.67-9.2-6.2c-3.53-1.53-7.43-2.3-11.7-2.3s-8.37.77-11.9,2.3c-3.53,1.53-6.57,3.63-9.1,6.3-2.53,2.67-4.53,5.77-6,9.3-1.47,3.54-2.33,7.3-2.6,11.3h59.4c-.27-4-1.17-7.8-2.7-11.4Z"/><path class="cls-1" d="m372.88,42.75v21.8h.4c4.13-8.4,9.2-14.6,15.2-18.6s13.6-5.87,22.8-5.6v18c-6.8,0-12.6.93-17.4,2.8-4.8,1.87-8.67,4.6-11.6,8.2-2.93,3.6-5.07,7.97-6.4,13.1-1.33,5.13-2,11.03-2,17.7v46h-17V42.75h16Z"/><path class="cls-1" d="m501.68,175.35c-7.73,8.4-19.87,12.6-36.4,12.6-4.8,0-9.7-.53-14.7-1.6-5-1.07-9.53-2.8-13.6-5.2-4.07-2.4-7.43-5.53-10.1-9.4-2.67-3.87-4.13-8.6-4.4-14.2h17c.13,3.07,1.1,5.67,2.9,7.8,1.8,2.13,4,3.87,6.6,5.2,2.6,1.33,5.43,2.3,8.5,2.9,3.07.6,6,.9,8.8.9,5.6,0,10.33-.97,14.2-2.9,3.87-1.93,7.07-4.6,9.6-8,2.53-3.4,4.37-7.5,5.5-12.3,1.13-4.8,1.7-10.07,1.7-15.8v-6.8h-.4c-2.93,6.4-7.37,11.1-13.3,14.1-5.93,3-12.23,4.5-18.9,4.5-7.73,0-14.47-1.4-20.2-4.2-5.73-2.8-10.53-6.57-14.4-11.3-3.87-4.73-6.77-10.27-8.7-16.6-1.93-6.33-2.9-13.03-2.9-20.1,0-6.13.8-12.43,2.4-18.9,1.6-6.47,4.27-12.33,8-17.6,3.73-5.27,8.67-9.6,14.8-13,6.13-3.4,13.67-5.1,22.6-5.1,6.53,0,12.53,1.43,18,4.3,5.47,2.87,9.73,7.17,12.8,12.9h.2v-14.8h16v94.6c0,16.93-3.87,29.6-11.6,38Zm-21.7-46.5c3.93-2.33,7.1-5.4,9.5-9.2,2.4-3.8,4.17-8.1,5.3-12.9,1.13-4.8,1.7-9.6,1.7-14.4,0-4.53-.53-9-1.6-13.4-1.07-4.4-2.77-8.37-5.1-11.9-2.33-3.53-5.37-6.37-9.1-8.5-3.73-2.13-8.27-3.2-13.6-3.2s-10.13,1.03-14,3.1c-3.87,2.07-7.03,4.83-9.5,8.3-2.47,3.47-4.27,7.47-5.4,12-1.13,4.54-1.7,9.27-1.7,14.2,0,4.67.47,9.33,1.4,14,.93,4.67,2.53,8.9,4.8,12.7,2.27,3.8,5.27,6.87,9,9.2,3.73,2.33,8.4,3.5,14,3.5s10.37-1.17,14.3-3.5Z"/><path class="cls-1" d="m552.28,173.05c-2.13,3-4.47,5.6-7,7.8-2.53,2.2-5.4,3.93-8.6,5.2-3.2,1.27-6.93,1.9-11.2,1.9-2,0-4.07-.23-6.2-.7-2.13-.47-4-1.1-5.6-1.9l3-13.8c1.33.8,2.93,1.46,4.8,2,1.87.53,3.47.8,4.8.8,3.87,0,7-1.03,9.4-3.1,2.4-2.07,4.6-4.77,6.6-8.1l10.4-17-18.2-103.4h18.2l12,82.2h.4l43.4-82.2h18.6l-68.4,120.8c-2.13,3.33-4.27,6.5-6.4,9.5Z"/><path class="cls-1" d="m618.87,159.15c6-9.2,11.1-18.73,15.3-28.6,4.2-9.87,7.46-20.13,9.8-30.8,2.33-10.67,3.5-21.73,3.5-33.2s-.8-22.57-2.4-33.7c-1.6-11.13-4.27-22.1-8-32.9h11.2c2.4,5.33,4.57,11.1,6.5,17.3,1.93,6.2,3.63,12.5,5.1,18.9,1.47,6.4,2.6,12.8,3.4,19.2.8,6.4,1.2,12.53,1.2,18.4,0,11.47-1.33,22.17-4,32.1-2.67,9.93-6.3,19.4-10.9,28.4-4.6,9-10.03,17.7-16.3,26.1-6.27,8.4-13,16.8-20.2,25.2h-14c7.2-8.4,13.8-17.2,19.8-26.4Z"/></svg>